{
  "accessors": [
    {
      "bufferView": 2,
      "componentType": 5126,
      "count": 272,
      "max": [
        0.31733599305152893,
        0.4767390787601471,
        -0.08064108341932297
      ],
      "min": [
        -0.31733599305152893,
        -0.058438073843717575,
        -0.5076501369476318
      ],
      "type": "VEC3",
      "byteOffset": 0
    },
    {
      "bufferView": 2,
      "byteOffset": 3264,
      "componentType": 5126,
      "count": 272,
      "max": [
        0.9341075420379639,
        0.9938565492630005,
        0.9377346038818359
      ],
      "min": [
        -0.9341075420379639,
        -0.9991335272789001,
        -0.9962121248245239
      ],
      "type": "VEC3"
    },
    {
      "bufferView": 3,
      "componentType": 5126,
      "count": 272,
      "max": [
        0.9999585747718811,
        0.8378376364707947,
        0.6114878058433533,
        1
      ],
      "min": [
        -0.9999586343765259,
        -0.8388729691505432,
        -0.5736240148544312,
        -1
      ],
      "type": "VEC4",
      "byteOffset": 0
    },
    {
      "bufferView": 1,
      "componentType": 5126,
      "count": 272,
      "max": [
        0.298248827457428,
        0.9770026803016663
      ],
      "min": [
        0.02132176049053669,
        0.8735193014144897
      ],
      "type": "VEC2",
      "byteOffset": 0
    },
    {
      "bufferView": 0,
      "componentType": 5125,
      "count": 1152,
      "type": "SCALAR",
      "byteOffset": 0
    },
    {
      "bufferView": 2,
      "byteOffset": 6528,
      "componentType": 5126,
      "count": 2145,
      "max": [
        0.4604490101337433,
        1.4105162620544434,
        0.37574198842048645
      ],
      "min": [
        -0.4604490101337433,
        -0.3642580807209015,
        -1.0053013563156128
      ],
      "type": "VEC3"
    },
    {
      "bufferView": 2,
      "byteOffset": 32268,
      "componentType": 5126,
      "count": 2145,
      "max": [
        0.9990193247795105,
        0.9998840689659119,
        0.9998112916946411
      ],
      "min": [
        -0.9990193247795105,
        -0.9996182918548584,
        -0.9989622235298157
      ],
      "type": "VEC3"
    },
    {
      "bufferView": 3,
      "byteOffset": 4352,
      "componentType": 5126,
      "count": 2145,
      "max": [
        1,
        0.9995712041854858,
        0.9983748197555542,
        -1
      ],
      "min": [
        -1,
        -0.9995611310005188,
        -0.9728441834449768,
        -1
      ],
      "type": "VEC4"
    },
    {
      "bufferView": 1,
      "byteOffset": 2176,
      "componentType": 5126,
      "count": 2145,
      "max": [
        0.9876394867897034,
        0.9898383617401123
      ],
      "min": [
        0.011742204427719116,
        0.011792421340942383
      ],
      "type": "VEC2"
    },
    {
      "bufferView": 0,
      "byteOffset": 4608,
      "componentType": 5125,
      "count": 11124,
      "type": "SCALAR"
    },
    {
      "bufferView": 2,
      "byteOffset": 58008,
      "componentType": 5126,
      "count": 130,
      "max": [
        0.1959719955921173,
        -0.12931403517723083,
        0.05310703068971634
      ],
      "min": [
        -0.1959719955921173,
        -0.2074800431728363,
        -0.10322500765323639
      ],
      "type": "VEC3"
    },
    {
      "bufferView": 2,
      "byteOffset": 59568,
      "componentType": 5126,
      "count": 130,
      "max": [
        0.9807858467102051,
        -0.1950780600309372,
        0.9807859063148499
      ],
      "min": [
        -0.9807858467102051,
        -1,
        -0.9807858467102051
      ],
      "type": "VEC3"
    },
    {
      "bufferView": 3,
      "byteOffset": 38672,
      "componentType": 5126,
      "count": 130,
      "max": [
        0.8683580160140991,
        0.9764424562454224,
        -0.021649187430739403,
        1
      ],
      "min": [
        -0.8683579564094543,
        -0.9770148396492004,
        -0.6748194694519043,
        -1
      ],
      "type": "VEC4"
    },
    {
      "bufferView": 1,
      "byteOffset": 19336,
      "componentType": 5126,
      "count": 130,
      "max": [
        0.4016946256160736,
        0.8620152473449707
      ],
      "min": [
        0.32003873586654663,
        0.7806057929992676
      ],
      "type": "VEC2"
    },
    {
      "bufferView": 0,
      "byteOffset": 49104,
      "componentType": 5125,
      "count": 672,
      "type": "SCALAR"
    }
  ],
  "asset": {
    "extras": {
      "author": "madameetrange (https://sketchfab.com/madameetrange)",
      "license": "CC-BY-4.0 (http://creativecommons.org/licenses/by/4.0/)",
      "source": "https://sketchfab.com/3d-models/shiba-pond-shibatexturingchallenge-ae4188becadb4df190edd68d0f13f8ba",
      "title": "Shiba Pond -ShibaTexturingChallenge"
    },
    "generator": "Sketchfab-12.66.0",
    "version": "2.0"
  },
  "bufferViews": [
    {
      "buffer": 0,
      "byteLength": 51792,
      "name": "floatBufferViews",
      "target": 34963,
      "byteOffset": 0
    },
    {
      "buffer": 0,
      "byteLength": 20376,
      "byteOffset": 51792,
      "byteStride": 8,
      "name": "floatBufferViews",
      "target": 34962
    },
    {
      "buffer": 0,
      "byteLength": 61128,
      "byteOffset": 72168,
      "byteStride": 12,
      "name": "floatBufferViews",
      "target": 34962
    },
    {
      "buffer": 0,
      "byteLength": 40752,
      "byteOffset": 133296,
      "byteStride": 16,
      "name": "floatBufferViews",
      "target": 34962
    },
    {
      "buffer": 0,
      "byteOffset": 174048,
      "byteLength": 638376
    },
    {
      "buffer": 0,
      "byteOffset": 812424,
      "byteLength": 127212
    },
    {
      "buffer": 0,
      "byteOffset": 939640,
      "byteLength": 501044
    }
  ],
  "buffers": [
    {
      "name": "shiba2",
      "byteLength": 1440688,
      "uri": "data:application/octet-stream;base64,"
    }
  ],
  "images": [
    {
      "name": "default_baseColor",
      "bufferView": 4,
      "mimeType": "image/png"
    },
    {
      "name": "default_metallicRoughness",
      "bufferView": 5,
      "mimeType": "image/png"
    },
    {
      "name": "default_normal",
      "bufferView": 6,
      "mimeType": "image/png"
    }
  ],
  "materials": [
    {
      "doubleSided": true,
      "name": "default",
      "normalTexture": {
        "index": 2,
        "texCoord": 0
      },
      "pbrMetallicRoughness": {
        "baseColorTexture": {
          "index": 0,
          "texCoord": 0
        },
        "metallicFactor": 0,
        "metallicRoughnessTexture": {
          "index": 1,
          "texCoord": 0
        },
        "baseColorFactor": [
          1,
          1,
          1,
          1
        ],
        "roughnessFactor": 1
      },
      "emissiveFactor": [
        0,
        0,
        0
      ],
      "alphaMode": "OPAQUE"
    }
  ],
  "meshes": [
    {
      "name": "Group18985_default_0_default_0",
      "primitives": [
        {
          "attributes": {
            "NORMAL": 1,
            "POSITION": 0,
            "TANGENT": 2,
            "TEXCOORD_0": 3
          },
          "indices": 4,
          "material": 0,
          "mode": 4
        }
      ]
    },
    {
      "name": "Box002_default_0_default_0",
      "primitives": [
        {
          "attributes": {
            "NORMAL": 6,
            "POSITION": 5,
            "TANGENT": 7,
            "TEXCOORD_0": 8
          },
          "indices": 9,
          "material": 0,
          "mode": 4
        }
      ]
    },
    {
      "name": "Object001_default_0_default_0",
      "primitives": [
        {
          "attributes": {
            "NORMAL": 11,
            "POSITION": 10,
            "TANGENT": 12,
            "TEXCOORD_0": 13
          },
          "indices": 14,
          "material": 0,
          "mode": 4
        }
      ]
    }
  ],
  "nodes": [
    {
      "children": [
        1
      ],
      "matrix": [
        0.8049799203872681,
        -4.092952801336731e-16,
        0.5933020710945129,
        0,
        -3.885780586188048e-16,
        -1,
        -1.3877787807814457e-16,
        0,
        0.5933020710945129,
        -1.126920955691295e-16,
        -0.8049799203872681,
        0,
        -31.037336349487305,
        83.79071044921875,
        10.632975578308123,
        1
      ],
      "name": "Sketchfab_model"
    },
    {
      "children": [
        2
      ],
      "matrix": [
        1,
        0,
        0,
        0,
        0,
        0,
        1,
        0,
        0,
        -1,
        0,
        0,
        0,
        0,
        0,
        1
      ],
      "name": "da660c0b13dd465a8940755b7c49763a.fbx"
    },
    {
      "children": [
        3
      ],
      "name": "RootNode"
    },
    {
      "children": [
        4
      ],
      "matrix": [
        100,
        0,
        0,
        0,
        0,
        100,
        0,
        0,
        0,
        0,
        100,
        0,
        0,
        0,
        0,
        1
      ],
      "name": "RootNode (gltf orientation matrix)"
    },
    {
      "children": [
        5
      ],
      "name": "RootNode (model correction matrix)"
    },
    {
      "children": [
        6
      ],
      "name": "1.FBX"
    },
    {
      "children": [
        7,
        10,
        13
      ],
      "name": "RootNode"
    },
    {
      "children": [
        8
      ],
      "name": "Group18985"
    },
    {
      "children": [
        9
      ],
      "name": "Group18985_default_0"
    },
    {
      "mesh": 0,
      "name": "Group18985_default_0_default_0"
    },
    {
      "children": [
        11
      ],
      "name": "Box002"
    },
    {
      "children": [
        12
      ],
      "name": "Box002_default_0"
    },
    {
      "mesh": 1,
      "name": "Box002_default_0_default_0"
    },
    {
      "children": [
        14
      ],
      "name": "Object001"
    },
    {
      "children": [
        15
      ],
      "name": "Object001_default_0"
    },
    {
      "mesh": 2,
      "name": "Object001_default_0_default_0"
    }
  ],
  "samplers": [
    {
      "magFilter": 9729,
      "minFilter": 9987,
      "wrapS": 10497,
      "wrapT": 10497
    }
  ],
  "scene": 0,
  "scenes": [
    {
      "name": "Sketchfab_Scene",
      "nodes": [
        0
      ]
    }
  ],
  "textures": [
    {
      "sampler": 0,
      "source": 0
    },
    {
      "sampler": 0,
      "source": 1
    },
    {
      "sampler": 0,
      "source": 2
    }
  ]
}
